
<!-- Generator: visioncortex VTracer 0.6.4 -->
<svg version="1.1" xmlns="http://www.w3.org/2000/svg" viewBox="0 0 500 175" preserveAspectRatio="xMidYMid meet">
<path d="M0 0 C2.498 2.498 2.651 3.494 3 7 C2.733 10.052 2.218 13.047 1.688 16.062 C1.547 16.903 1.406 17.743 1.26 18.609 C0.977 20.292 0.691 21.974 0.401 23.656 C-0.135 26.787 -0.626 29.925 -1.125 33.062 C-1.874 37.748 -1.874 37.748 -3 40 C-3.18 41.329 -3.321 42.664 -3.438 44 C-3.763 47.176 -4.212 50.252 -4.875 53.375 C-5.879 58.166 -6.635 62.976 -7.375 67.812 C-8.504 75.056 -9.698 82.286 -11 89.5 C-11.154 90.402 -11.308 91.304 -11.466 92.234 C-11.622 93.074 -11.777 93.915 -11.938 94.781 C-12.07 95.524 -12.203 96.268 -12.34 97.033 C-13.132 99.393 -14.045 100.476 -16 102 C-18.687 102.188 -18.687 102.188 -21 102 C-21 101.34 -21 100.68 -21 100 C-21.66 100 -22.32 100 -23 100 C-23 93.07 -23 86.14 -23 79 C-23.66 79 -24.32 79 -25 79 C-25.227 79.521 -25.454 80.042 -25.688 80.578 C-27.475 83.877 -29.719 86.785 -32 89.75 C-32.451 90.352 -32.902 90.954 -33.367 91.574 C-34.528 93.089 -35.759 94.55 -37 96 C-37.66 96 -38.32 96 -39 96 C-39 96.66 -39 97.32 -39 98 C-39.66 98 -40.32 98 -41 98 C-41 98.66 -41 99.32 -41 100 C-41.66 100 -42.32 100 -43 100 C-43.268 100.592 -43.536 101.183 -43.812 101.793 C-47.618 108.865 -55.275 113.955 -62 118 C-62.66 118 -63.32 118 -64 118 C-64 118.66 -64 119.32 -64 120 C-76.624 126.609 -87.73 131.156 -102.062 131.25 C-103.247 131.281 -103.247 131.281 -104.455 131.312 C-109.166 131.344 -112.132 130.986 -116 128 C-117.657 126.343 -117.171 124.393 -117.188 122.125 C-117.202 121.241 -117.216 120.356 -117.23 119.445 C-117 117 -117 117 -115 114 C-114.34 114 -113.68 114 -113 114 C-113 113.34 -113 112.68 -113 112 C-112.34 112 -111.68 112 -111 112 C-111 111.34 -111 110.68 -111 110 C-110.34 110 -109.68 110 -109 110 C-109 109.34 -109 108.68 -109 108 C-108.34 108 -107.68 108 -107 108 C-107 107.34 -107 106.68 -107 106 C-105.652 104.671 -105.652 104.671 -103.715 103.082 C-98.568 98.705 -93.815 93.966 -89.052 89.182 C-87.544 87.669 -86.031 86.162 -84.518 84.654 C-83.554 83.69 -82.591 82.726 -81.629 81.762 C-80.331 80.462 -80.331 80.462 -79.006 79.135 C-76.963 77.165 -76.963 77.165 -76 75 C-75.34 75 -74.68 75 -74 75 C-74 74.34 -74 73.68 -74 73 C-73.34 73 -72.68 73 -72 73 C-72 72.34 -72 71.68 -72 71 C-71.34 71 -70.68 71 -70 71 C-69.615 70.122 -69.615 70.122 -69.223 69.227 C-67.894 66.808 -66.435 65.268 -64.438 63.375 C-61.86 60.955 -61.86 60.955 -60 58 C-59.34 58 -58.68 58 -58 58 C-58.879 55.672 -58.879 55.672 -61.875 54.938 C-66.051 53.802 -70.237 53.671 -74.547 53.539 C-77 53 -77 53 -78.891 51.211 C-80 49 -80 49 -79.945 46.949 C-78.689 44.359 -77.267 43.411 -74.875 41.812 C-73.979 41.213 -73.083 40.614 -72.16 39.996 C-67.967 37.348 -63.727 34.783 -59.443 32.284 C-56.24 30.405 -53.209 28.448 -50.23 26.227 C-47 24 -47 24 -44 24 C-44 23.34 -44 22.68 -44 22 C-43.287 21.625 -42.574 21.25 -41.84 20.863 C-37.388 18.485 -33.043 16.16 -29 13.125 C-26 11 -26 11 -23 11 C-23 10.34 -23 9.68 -23 9 C-22.264 8.602 -21.528 8.203 -20.77 7.793 C-19.794 7.263 -18.818 6.733 -17.812 6.188 C-16.85 5.665 -15.887 5.143 -14.895 4.605 C-13.02 3.566 -11.174 2.473 -9.367 1.32 C-6.121 -0.491 -3.653 -0.345 0 0 Z " fill="#0C4285" transform="translate(146,14)"/>
<path d="M0 0 C4.95 0 9.9 0 15 0 C15.576 3.459 16.129 6.803 16.5 10.27 C16.624 11.384 16.624 11.384 16.75 12.521 C16.919 14.068 17.085 15.615 17.25 17.162 C17.352 20.893 17.352 20.893 19 24 C19.409 23.029 19.817 22.059 20.238 21.059 C22.116 16.676 24.146 12.37 26.188 8.062 C26.556 7.283 26.924 6.504 27.303 5.701 C28.201 3.8 29.1 1.9 30 0 C34.62 0 39.24 0 44 0 C45.533 4.944 46.45 9.652 47.062 14.812 C47.488 19.565 47.488 19.565 49 24 C52.127 17.256 55.246 10.512 58.238 3.707 C58.796 2.458 59.388 1.224 60 0 C64.95 0 69.9 0 75 0 C71.739 8.794 68.128 17.284 64.08 25.743 C62.825 28.367 61.576 30.994 60.328 33.621 C57.89 38.75 55.447 43.876 53 49 C48.05 49 43.1 49 38 49 C37.711 46.752 37.423 44.504 37.125 42.188 C36.282 35.751 35.245 29.372 34 23 C33.553 24.039 33.105 25.078 32.645 26.148 C29.299 33.881 25.863 41.508 22 49 C17.05 49 12.1 49 7 49 C3.98 32.749 1.785 16.431 0 0 Z " fill="#172537" transform="translate(393,74)"/>
<path d="M0 0 C0.66 0.33 1.32 0.66 2 1 C3.111 21.301 -4.695 39.153 -17 55 C-17.487 55.639 -17.975 56.279 -18.477 56.938 C-19.589 58.343 -20.786 59.682 -22 61 C-22.66 61 -23.32 61 -24 61 C-24 61.66 -24 62.32 -24 63 C-26.367 65.162 -28.882 67.072 -31.426 69.023 C-33.278 70.445 -35.068 71.949 -36.812 73.5 C-41.954 75.92 -47.421 75.775 -53 75 C-55.261 73.834 -57.199 72.801 -59 71 C-59.125 69.379 -59.176 67.751 -59.188 66.125 C-59.202 65.241 -59.216 64.356 -59.23 63.445 C-59 61 -59 61 -57 58 C-56.34 58 -55.68 58 -55 58 C-55 57.34 -55 56.68 -55 56 C-54.34 56 -53.68 56 -53 56 C-53 55.34 -53 54.68 -53 54 C-52.34 54 -51.68 54 -51 54 C-51 53.34 -51 52.68 -51 52 C-50.34 52 -49.68 52 -49 52 C-49 51.34 -49 50.68 -49 50 C-47.652 48.671 -47.652 48.671 -45.715 47.082 C-40.568 42.705 -35.815 37.966 -31.052 33.182 C-29.544 31.669 -28.031 30.162 -26.518 28.654 C-25.554 27.69 -24.591 26.726 -23.629 25.762 C-22.331 24.462 -22.331 24.462 -21.006 23.135 C-18.963 21.165 -18.963 21.165 -18 19 C-17.34 19 -16.68 19 -16 19 C-16 18.34 -16 17.68 -16 17 C-15.34 17 -14.68 17 -14 17 C-14 16.34 -14 15.68 -14 15 C-13.34 15 -12.68 15 -12 15 C-11.743 14.415 -11.487 13.83 -11.223 13.227 C-9.894 10.808 -8.435 9.268 -6.438 7.375 C-3.86 4.955 -3.86 4.955 -2 2 C-1.34 2 -0.68 2 0 2 C0 1.34 0 0.68 0 0 Z " fill="#0496EA" transform="translate(88,70)"/>
<path d="M0 0 C1.772 0 3.544 0.006 5.316 0.016 C6.247 0.017 7.178 0.019 8.137 0.02 C11.122 0.026 14.108 0.038 17.094 0.051 C19.112 0.056 21.131 0.061 23.15 0.065 C28.11 0.076 33.071 0.093 38.031 0.114 C37.701 4.734 37.371 9.354 37.031 14.114 C27.791 14.114 18.551 14.114 9.031 14.114 C8.701 17.084 8.371 20.054 8.031 23.114 C7.701 24.764 7.371 26.414 7.031 28.114 C14.951 28.114 22.871 28.114 31.031 28.114 C30.156 40.989 30.156 40.989 29.031 42.114 C27.25 42.201 25.466 42.221 23.683 42.211 C22.604 42.208 21.524 42.205 20.412 42.201 C19.276 42.193 18.139 42.185 16.969 42.176 C15.828 42.172 14.688 42.167 13.513 42.162 C10.686 42.151 7.858 42.134 5.031 42.114 C4.945 42.759 4.86 43.405 4.771 44.07 C4.381 47.001 3.987 49.932 3.594 52.864 C3.459 53.879 3.324 54.895 3.185 55.942 C2.987 57.411 2.987 57.411 2.785 58.91 C2.664 59.811 2.544 60.712 2.42 61.64 C2.031 64.114 2.031 64.114 1.031 68.114 C-3.919 68.114 -8.869 68.114 -13.969 68.114 C-13.969 62.941 -13.768 59.479 -12.719 54.614 C-10.76 44.976 -9.626 35.222 -8.415 25.469 C-5.263 0.151 -5.263 0.151 0 0 Z " fill="#192739" transform="translate(285.968994140625,54.886474609375)"/>
<path d="M0 0 C13.53 0 27.06 0 41 0 C40 11 40 11 39 14 C30.42 14 21.84 14 13 14 C12.67 17.63 12.34 21.26 12 25 C11.67 25.99 11.34 26.98 11 28 C18.59 28 26.18 28 34 28 C33.34 32.62 32.68 37.24 32 42 C24.41 42.33 16.82 42.66 9 43 C8.584 45.581 8.584 45.581 8.16 48.215 C7.794 50.456 7.429 52.697 7.062 54.938 C6.88 56.074 6.698 57.21 6.51 58.381 C6.333 59.46 6.155 60.54 5.973 61.652 C5.81 62.653 5.648 63.653 5.481 64.683 C5 67 5 67 4 68 C1.47 68.073 -1.033 68.092 -3.562 68.062 C-4.273 68.058 -4.984 68.053 -5.717 68.049 C-7.478 68.037 -9.239 68.019 -11 68 C-9.074 51.033 -6.49 34.231 -3.582 17.408 C-2.838 13.05 -2.14 8.686 -1.449 4.319 C-1 2 -1 2 0 0 Z " fill="#1A283A" transform="translate(162,55)"/>
<path d="M0 0 C4.688 2.421 8.174 5.07 10.164 10.094 C13.031 20.363 10.751 29.019 6.062 38.312 C5.403 38.312 4.743 38.312 4.062 38.312 C3.807 38.908 3.552 39.504 3.289 40.117 C0.61 44.912 -4.587 48.2 -9.812 49.688 C-18.178 51.259 -25.636 51.045 -32.938 46.312 C-37.05 42.834 -39.744 39.016 -40.75 33.609 C-41.484 24.612 -40.017 17.766 -34.938 10.312 C-34.277 9.323 -33.618 8.332 -32.938 7.312 C-32.277 7.312 -31.618 7.312 -30.938 7.312 C-30.938 6.653 -30.938 5.993 -30.938 5.312 C-30.277 5.312 -29.618 5.312 -28.938 5.312 C-28.938 4.653 -28.938 3.993 -28.938 3.312 C-19.319 -1.463 -10.362 -4.186 0 0 Z M-21.938 15.312 C-25.245 19.624 -26.234 23.282 -25.75 28.688 C-25.396 31.202 -25.073 33.042 -23.938 35.312 C-23.277 35.312 -22.618 35.312 -21.938 35.312 C-21.938 35.972 -21.938 36.632 -21.938 37.312 C-15.77 38.037 -15.77 38.037 -10.008 36.223 C-5.24 31.751 -3.942 26.524 -3.562 20.125 C-3.598 16.309 -3.598 16.309 -5.812 13.875 C-11.645 9.587 -16.587 10.66 -21.938 15.312 Z " fill="#162436" transform="translate(380.9375,73.6875)"/>
<path d="M0 0 C3.469 1.539 5.327 2.928 7.613 6 C9.896 13.56 8.347 21.569 7.238 29.25 C7.112 30.175 6.986 31.1 6.855 32.053 C5.995 38.193 4.879 44.243 3.613 50.312 C-1.337 50.312 -6.287 50.312 -11.387 50.312 C-11.182 48.887 -10.977 47.461 -10.766 45.992 C-9.273 35.437 -7.914 24.967 -7.387 14.312 C-13.309 13.05 -13.309 13.05 -18.824 14.75 C-19.34 15.266 -19.855 15.781 -20.387 16.312 C-21.047 16.312 -21.707 16.312 -22.387 16.312 C-23.039 19.936 -23.682 23.562 -24.324 27.188 C-24.507 28.201 -24.689 29.214 -24.877 30.258 C-25.887 35.985 -26.693 41.654 -27.143 47.454 C-27.387 49.312 -27.387 49.312 -28.387 50.312 C-30.74 50.385 -33.095 50.396 -35.449 50.375 C-36.74 50.366 -38.03 50.357 -39.359 50.348 C-40.358 50.336 -41.357 50.324 -42.387 50.312 C-42.486 45.007 -42.188 40.104 -41.328 34.848 C-41.22 34.17 -41.111 33.492 -40.999 32.794 C-40.655 30.654 -40.303 28.514 -39.949 26.375 C-39.489 23.554 -39.033 20.732 -38.578 17.91 C-38.47 17.241 -38.362 16.572 -38.25 15.883 C-37.476 11.035 -36.862 6.198 -36.387 1.312 C-35.145 1.336 -33.904 1.359 -32.625 1.383 C-30.983 1.402 -29.341 1.42 -27.699 1.438 C-26.883 1.454 -26.066 1.471 -25.225 1.488 C-16.321 1.56 -9.07 -2.613 0 0 Z " fill="#182537" transform="translate(261.38671875,72.6875)"/>
<path d="M0 0 C4.62 0 9.24 0 14 0 C14 4.619 13.925 8.363 13.23 12.809 C12.983 14.411 12.983 14.411 12.73 16.046 C12.551 17.165 12.372 18.284 12.188 19.438 C12.005 20.601 11.823 21.765 11.635 22.964 C10.468 30.328 9.16 37.646 7.719 44.961 C6.584 51.017 5.843 57.147 5.09 63.261 C4.976 64.122 4.863 64.984 4.746 65.871 C4.65 66.644 4.554 67.417 4.455 68.213 C4.23 69.097 4.23 69.097 4 70 C1.056 71.472 -1.374 70.849 -4.625 70.562 C-5.814 70.461 -7.002 70.359 -8.227 70.254 C-9.599 70.128 -9.599 70.128 -11 70 C-10.637 61.994 -9.811 54.385 -8.227 46.527 C-7.078 40.712 -6.265 34.877 -5.5 29 C-2.299 4.597 -2.299 4.597 0 0 Z " fill="#152235" transform="translate(330,53)"/>
<path d="M0 0 C4.95 0 9.9 0 15 0 C13.397 12.12 11.705 24.225 9.875 36.312 C9.705 37.457 9.534 38.602 9.358 39.781 C9.196 40.839 9.034 41.898 8.867 42.988 C8.724 43.932 8.581 44.876 8.433 45.849 C8 48 8 48 7 49 C4.47 49.073 1.967 49.092 -0.562 49.062 C-1.629 49.056 -1.629 49.056 -2.717 49.049 C-4.478 49.037 -6.239 49.019 -8 49 C-6.865 39.116 -5.488 29.275 -4 19.438 C-3.834 18.32 -3.668 17.203 -3.497 16.051 C-3.333 14.981 -3.169 13.911 -3 12.809 C-2.856 11.858 -2.711 10.907 -2.562 9.927 C-1.918 6.571 -0.939 3.286 0 0 Z " fill="#192639" transform="translate(205,74)"/>
<path d="M0 0 C2.438 1.562 2.438 1.562 4 4 C4.721 8.408 4.52 10.259 1.938 13.938 C-1.702 16.493 -3.637 16.566 -8 16 C-11 14 -11 14 -11.875 10.188 C-12.238 6.273 -11.54 4.105 -9 1 C-5.908 -0.546 -3.406 -0.294 0 0 Z " fill="#212E3E" transform="translate(218,54)"/>
<path d="M0 0 C0.66 0.33 1.32 0.66 2 1 C2 1.99 2 2.98 2 4 C0.321 5.644 -1.499 6.984 -3.371 8.402 C-5.24 10.235 -5.609 11.449 -6 14 C-6.99 14 -7.98 14 -9 14 C-9.66 14.66 -10.32 15.32 -11 16 C-11 12 -11 12 -9.285 9.93 C-8.552 9.252 -7.818 8.574 -7.062 7.875 C-4.13 5.238 -4.13 5.238 -2 2 C-1.34 2 -0.68 2 0 2 C0 1.34 0 0.68 0 0 Z M-14 15 C-13.01 15.495 -13.01 15.495 -12 16 C-12.99 16.495 -12.99 16.495 -14 17 C-14 16.34 -14 15.68 -14 15 Z M-12 16 C-11.34 16.66 -10.68 17.32 -10 18 C-10.99 17.67 -11.98 17.34 -13 17 C-12.67 16.67 -12.34 16.34 -12 16 Z M-16 17 C-15.01 17.495 -15.01 17.495 -14 18 C-14.99 18.495 -14.99 18.495 -16 19 C-16 18.34 -16 17.68 -16 17 Z M-14 18 C-13.67 18.66 -13.34 19.32 -13 20 C-13.66 19.67 -14.32 19.34 -15 19 C-14.67 18.67 -14.34 18.34 -14 18 Z M-18 19 C-17.01 19.495 -17.01 19.495 -16 20 C-16.99 20.495 -16.99 20.495 -18 21 C-18 20.34 -18 19.68 -18 19 Z M-16 20 C-15.67 20.66 -15.34 21.32 -15 22 C-15.66 21.67 -16.32 21.34 -17 21 C-16.67 20.67 -16.34 20.34 -16 20 Z M-20 24 C-20 27 -20 27 -20 27 Z M-23 25 C-22.67 25.66 -22.34 26.32 -22 27 C-22.66 26.67 -23.32 26.34 -24 26 C-23.67 25.67 -23.34 25.34 -23 25 Z M-49 50 C-48.01 50.495 -48.01 50.495 -47 51 C-47.99 51.495 -47.99 51.495 -49 52 C-49 51.34 -49 50.68 -49 50 Z M-51 52 C-50.01 52.495 -50.01 52.495 -49 53 C-49.99 53.495 -49.99 53.495 -51 54 C-51 53.34 -51 52.68 -51 52 Z M-53 54 C-52.01 54.495 -52.01 54.495 -51 55 C-51.99 55.495 -51.99 55.495 -53 56 C-53 55.34 -53 54.68 -53 54 Z M-55 56 C-54.01 56.495 -54.01 56.495 -53 57 C-53.99 57.495 -53.99 57.495 -55 58 C-55 57.34 -55 56.68 -55 56 Z M-57 58 C-56.01 58.495 -56.01 58.495 -55 59 C-55.99 59.495 -55.99 59.495 -57 60 C-57 59.34 -57 58.68 -57 58 Z " fill="#68B1DF" transform="translate(88,70)"/>
<path d="M0 0 C0.66 0.66 1.32 1.32 2 2 C4.599 2.319 4.599 2.319 7.5 2.25 C8.48 2.255 9.459 2.26 10.469 2.266 C13.169 2.251 13.169 2.251 15 0 C15 1.65 15 3.3 15 5 C12.056 6.472 9.626 5.849 6.375 5.562 C5.186 5.461 3.998 5.359 2.773 5.254 C1.858 5.17 0.943 5.086 0 5 C0 3.35 0 1.7 0 0 Z " fill="#717984" transform="translate(319,118)"/>
<path d="M0 0 C-3.282 2.865 -6.21 3.764 -10.438 4.688 C-11.55 4.939 -12.662 5.19 -13.809 5.449 C-16.628 5.936 -19.15 6.112 -22 6 C-21.67 5.34 -21.34 4.68 -21 4 C-18.926 3.438 -18.926 3.438 -16.312 3 C-13.291 2.458 -10.605 1.866 -7.688 0.875 C-4.956 -0.014 -2.851 -0.168 0 0 Z " fill="#6E829A" transform="translate(70,139)"/>
<path d="M0 0 C0.33 0 0.66 0 1 0 C1 1.98 1 3.96 1 6 C-3.95 6 -8.9 6 -14 6 C-14 5.01 -14 4.02 -14 3 C-7.07 3.495 -7.07 3.495 0 4 C0 2.68 0 1.36 0 0 Z " fill="#5E6671" transform="translate(165,117)"/>
<path d="M0 0 C0.66 0.33 1.32 0.66 2 1 C0.35 2.32 -1.3 3.64 -3 5 C-2.969 6.968 -2.969 6.968 -2 9 C0.996 10.305 0.996 10.305 4 11 C4 11.33 4 11.66 4 12 C0.688 12.25 0.688 12.25 -3 12 C-5 10.25 -5 10.25 -6 8 C-6 6 -6 6 -5 4 C-2.438 1.75 -2.438 1.75 0 0 Z " fill="#55647A" transform="translate(72,55)"/>
<path d="M0 0 C0.33 0 0.66 0 1 0 C1 1.65 1 3.3 1 5 C-3.95 5 -8.9 5 -14 5 C-14 4.01 -14 3.02 -14 2 C-7.07 2.495 -7.07 2.495 0 3 C0 2.01 0 1.02 0 0 Z " fill="#616974" transform="translate(211,118)"/>
<path d="M0 0 C0 0.99 0 1.98 0 3 C-0.99 3 -1.98 3 -3 3 C-2.01 2.01 -1.02 1.02 0 0 Z M-4 3 C-3.67 3.99 -3.34 4.98 -3 6 C-5.97 8.475 -5.97 8.475 -9 11 C-9.66 10.34 -10.32 9.68 -11 9 C-8.69 7.02 -6.38 5.04 -4 3 Z M-12 10 C-11.34 10.66 -10.68 11.32 -10 12 C-12.475 13.485 -12.475 13.485 -15 15 C-13.125 11.125 -13.125 11.125 -12 10 Z " fill="#627087" transform="translate(100,116)"/>
<path d="M0 0 C0.66 0.33 1.32 0.66 2 1 C2 1.99 2 2.98 2 4 C0.321 5.644 -1.499 6.984 -3.371 8.402 C-5.24 10.235 -5.609 11.449 -6 14 C-6.99 13.67 -7.98 13.34 -9 13 C-8.402 12.113 -7.804 11.226 -7.188 10.312 C-5.853 8.291 -4.567 6.234 -3.375 4.125 C-2.694 3.073 -2.694 3.073 -2 2 C-1.34 2 -0.68 2 0 2 C0 1.34 0 0.68 0 0 Z " fill="#3298D7" transform="translate(88,70)"/>
<path d="M0 0 C2.008 3.012 2.884 5.582 4 9 C4.638 10.347 5.293 11.687 6 13 C3.133 12.427 2.139 12.139 0 10 C-0.195 7.617 -0.195 7.617 -0.125 4.875 C-0.107 3.965 -0.089 3.055 -0.07 2.117 C-0.047 1.419 -0.024 0.72 0 0 Z " fill="#5CABDC" transform="translate(29,131)"/>
<path d="M0 0 C0.33 0.99 0.66 1.98 1 3 C0.34 3 -0.32 3 -1 3 C-1 3.66 -1 4.32 -1 5 C-3.25 7.188 -3.25 7.188 -6 9 C-8.172 8.613 -8.172 8.613 -10 8 C-9.362 7.506 -8.724 7.013 -8.066 6.504 C-7.24 5.863 -6.414 5.223 -5.562 4.562 C-4.739 3.924 -3.915 3.286 -3.066 2.629 C-1.125 1.164 -1.125 1.164 0 0 Z " fill="#07448D" transform="translate(61,134)"/>
<path d="M0 0 C1.65 0 3.3 0 5 0 C4.34 0.66 3.68 1.32 3 2 C2.399 3.867 2.399 3.867 2 5.938 C1.361 8.99 0.809 10.287 -1 13 C-0.67 8.71 -0.34 4.42 0 0 Z " fill="#394351" transform="translate(225,74)"/>
<path d="M0 0 C0.33 0.99 0.66 1.98 1 3 C-0.938 6.188 -0.938 6.188 -3 9 C-3.66 8.67 -4.32 8.34 -5 8 C-3.35 5.36 -1.7 2.72 0 0 Z " fill="#525B68" transform="translate(348,81)"/>
<path d="M0 0 C0.66 0 1.32 0 2 0 C1.25 6.625 1.25 6.625 -1 10 C-0.67 6.7 -0.34 3.4 0 0 Z " fill="#515A67" transform="translate(157,82)"/>
<path d="M0 0 C0.33 0 0.66 0 1 0 C1.25 7.625 1.25 7.625 -1 11 C-2.601 6.998 -1.293 3.954 0 0 Z " fill="#637083" transform="translate(147,22)"/>
<path d="M0 0 C1.245 2.491 0.777 3.411 0 6 C-0.99 5.67 -1.98 5.34 -3 5 C-2.01 3.35 -1.02 1.7 0 0 Z " fill="#1587CD" transform="translate(82,78)"/>
<path d="M0 0 C0.66 0.33 1.32 0.66 2 1 C0.68 2.32 -0.64 3.64 -2 5 C-2.99 4.67 -3.98 4.34 -5 4 C-3.35 2.68 -1.7 1.36 0 0 Z " fill="#68768B" transform="translate(77,133)"/>
<path d="M0 0 C0.66 0 1.32 0 2 0 C1 3 1 3 -1.062 4.188 C-1.702 4.456 -2.341 4.724 -3 5 C-3 4.01 -3 3.02 -3 2 C-2.01 2 -1.02 2 0 2 C0 1.34 0 0.68 0 0 Z M-6 4 C-4 5 -4 5 -4 5 Z " fill="#8390A1" transform="translate(102,36)"/>
<path d="M0 0 C1.875 0.25 1.875 0.25 4 1 C5.25 3.062 5.25 3.062 6 5 C4.125 4.75 4.125 4.75 2 4 C0.75 1.938 0.75 1.938 0 0 Z " fill="#85C2E7" transform="translate(29,139)"/>
<path d="M0 0 C0 0.99 0 1.98 0 3 C-1.65 3.66 -3.3 4.32 -5 5 C-5.33 4.34 -5.66 3.68 -6 3 C-4.02 2.01 -2.04 1.02 0 0 Z " fill="#3A424C" transform="translate(378,117)"/>
<path d="M0 0 C2 4 2 4 1.125 7.25 C0.754 8.157 0.382 9.065 0 10 C-0.33 10 -0.66 10 -1 10 C-0.67 6.7 -0.34 3.4 0 0 Z " fill="#666D77" transform="translate(325,80)"/>
<path d="M0 0 C0.66 0.33 1.32 0.66 2 1 C0.35 2.32 -1.3 3.64 -3 5 C-3 4.01 -3 3.02 -3 2 C-2.01 1.34 -1.02 0.68 0 0 Z M-6 4 C-4 5 -4 5 -4 5 Z " fill="#6E7F95" transform="translate(93,42)"/>
<path d="M0 0 C0.99 0.99 1.98 1.98 3 3 C2.34 3.99 1.68 4.98 1 6 C0.67 4.02 0.34 2.04 0 0 Z " fill="#556577" transform="translate(267,78)"/>
<path d="M0 0 C0.33 0.99 0.66 1.98 1 3 C-0.32 3.33 -1.64 3.66 -3 4 C-2.01 2.68 -1.02 1.36 0 0 Z " fill="#47556D" transform="translate(131,111)"/>
<path d="M0 0 C0.66 0.66 1.32 1.32 2 2 C0.515 2.99 0.515 2.99 -1 4 C-0.67 2.68 -0.34 1.36 0 0 Z " fill="#0D151F" transform="translate(416,91)"/>
<path d="M0 0 C0.99 0.33 1.98 0.66 3 1 C2.34 1.66 1.68 2.32 1 3 C0.67 2.01 0.34 1.02 0 0 Z " fill="#364866" transform="translate(67,63)"/>
</svg>